<svg width="76.000000" height="76.000000" viewBox="0 0 76 76" fill="none" xmlns="http://www.w3.org/2000/svg" xmlns:xlink="http://www.w3.org/1999/xlink">
	<g filter="url(#filter_2_6413_dd)">
		<rect id="Icons/illustration" width="68.000000" height="68.000000" transform="translate(4.000000 0.000000)" fill="#FFFFFF" fill-opacity="0"/>
		<rect id="Icons/illustration" width="68.000000" height="68.000000" transform="translate(4.000000 0.000000)" fill="#FFFFFF" fill-opacity="0"/>
		<rect id="Icons/illustration" width="68.000000" height="68.000000" transform="translate(4.000000 0.000000)" fill="#FFFFFF" fill-opacity="0"/>
		<rect id="Icons/illustration" width="68.000000" height="68.000000" transform="translate(4.000000 0.000000)" fill="#FFFFFF" fill-opacity="0"/>
		<g clip-path="url(#clip2_6449)">
			<path id="Vector" d="M35.6094 49.3384C35.0591 49.3384 34.6133 49.7842 34.6133 50.3345C34.6133 50.8848 35.0591 51.3306 35.6094 51.3306L40.3906 51.3306C40.9409 51.3306 41.3867 50.8848 41.3867 50.3345C41.3867 49.7842 40.9409 49.3384 40.3906 49.3384L35.6094 49.3384Z" fill="#FFB400" fill-opacity="1.000000" fill-rule="nonzero"/>
			<path id="Vector" d="M15.9531 33.8716L22.5376 33.8716C22.9395 34.9185 23.9526 35.6646 25.1392 35.6646C26.3257 35.6646 27.3394 34.9185 27.7412 33.8716L29.0571 33.8716C29.6074 33.8716 30.0532 33.4258 30.0532 32.8755C30.0532 32.3252 29.6074 31.8794 29.0571 31.8794L27.7412 31.8794C27.3394 30.8325 26.3257 30.0864 25.1392 30.0864C23.9526 30.0864 22.9395 30.8325 22.5376 31.8794L15.9531 31.8794C15.4028 31.8794 14.957 32.3252 14.957 32.8755C14.957 33.4258 15.4028 33.8716 15.9531 33.8716ZM25.1392 32.0786C25.5786 32.0786 25.936 32.436 25.936 32.8755C25.936 33.3149 25.5786 33.6724 25.1392 33.6724C24.6997 33.6724 24.3423 33.3149 24.3423 32.8755C24.3423 32.436 24.6997 32.0786 25.1392 32.0786Z" fill="#FFB400" fill-opacity="1.000000" fill-rule="nonzero"/>
			<path id="Vector" d="M15.9531 28.1606L17.2251 28.1606C17.627 29.2075 18.6401 29.9536 19.8267 29.9536C21.0132 29.9536 22.0269 29.2075 22.4287 28.1606L29.0571 28.1606C29.6074 28.1606 30.0532 27.7148 30.0532 27.1646C30.0532 26.6143 29.6074 26.1685 29.0571 26.1685L22.4287 26.1685C22.0269 25.1216 21.0132 24.3755 19.8267 24.3755C18.6401 24.3755 17.627 25.1216 17.2251 26.1685L15.9531 26.1685C15.4028 26.1685 14.957 26.6143 14.957 27.1646C14.957 27.7148 15.4028 28.1606 15.9531 28.1606ZM19.8267 26.3677C20.2661 26.3677 20.6235 26.7251 20.6235 27.1646C20.6235 27.604 20.2661 27.9614 19.8267 27.9614C19.3872 27.9614 19.0298 27.604 19.0298 27.1646C19.0298 26.7251 19.3872 26.3677 19.8267 26.3677Z" fill="#FFB400" fill-opacity="1.000000" fill-rule="nonzero"/>
			<path id="Vector" d="M30.2524 18.0005C30.2524 18.5508 29.8066 18.9966 29.2563 18.9966C28.7061 18.9966 28.2603 18.5508 28.2603 18.0005C28.2603 17.4502 28.7061 17.0044 29.2563 17.0044C29.8066 17.0044 30.2524 17.4502 30.2524 18.0005Z" fill="#FFB400" fill-opacity="1.000000" fill-rule="evenodd"/>
			<path id="Vector" d="M27.5078 18.0005C27.5078 18.5508 27.062 18.9966 26.5117 18.9966C25.9614 18.9966 25.5156 18.5508 25.5156 18.0005C25.5156 17.4502 25.9614 17.0044 26.5117 17.0044C27.062 17.0044 27.5078 17.4502 27.5078 18.0005Z" fill="#FFB400" fill-opacity="1.000000" fill-rule="evenodd"/>
			<path id="Vector" d="M24.7632 18.0005C24.7632 18.5508 24.3174 18.9966 23.7671 18.9966C23.2168 18.9966 22.771 18.5508 22.771 18.0005C22.771 17.4502 23.2168 17.0044 23.7671 17.0044C24.3174 17.0044 24.7632 17.4502 24.7632 18.0005Z" fill="#FFB400" fill-opacity="1.000000" fill-rule="evenodd"/>
			<path id="Vector" d="M69.0117 6.70459L68.6387 6.70459L68.917 6.42676C69.7505 5.59326 69.7505 4.23682 68.917 3.40381L66.7363 1.22314C65.9028 0.389648 64.5469 0.389648 63.7134 1.22314L58.2319 6.70459L6.98828 6.70459C5.34082 6.70459 4 8.04492 4 9.69287L4 51.0591C4 53.0732 5.63818 54.7114 7.65234 54.7114L31.2456 54.7114L31.2456 61.7578L26.4453 61.7578C25.1636 61.7578 24.1211 62.8008 24.1211 64.082L24.1211 65.0776C24.1211 66.3589 25.1636 67.4019 26.4453 67.4019L49.5547 67.4019C50.8364 67.4019 51.8789 66.3589 51.8789 65.0776L51.8789 64.082C51.8789 62.8008 50.8364 61.7578 49.5547 61.7578L44.7544 61.7578L44.7544 54.7114L55.3984 54.7114C55.9487 54.7114 56.3945 54.2656 56.3945 53.7153C56.3945 53.1655 55.9487 52.7192 55.3984 52.7192L7.65234 52.7192C6.73682 52.7192 5.99219 51.9746 5.99219 51.0591L5.99219 48.1108L70.0078 48.1108L70.0078 51.0591C70.0078 51.9746 69.2632 52.7192 68.3477 52.7192L60.0469 52.7192C59.4966 52.7192 59.0508 53.1655 59.0508 53.7153C59.0508 54.2656 59.4966 54.7114 60.0469 54.7114L68.3477 54.7114C70.3618 54.7114 72 53.0732 72 51.0591L72 9.69287C72 8.04541 70.6592 6.70459 69.0117 6.70459ZM49.5547 63.7505C49.7378 63.7505 49.8867 63.8994 49.8867 64.0825L49.8867 65.0776C49.8867 65.2607 49.7378 65.4097 49.5547 65.4097L26.4453 65.4097C26.2622 65.4097 26.1133 65.2607 26.1133 65.0776L26.1133 64.0825C26.1133 63.8994 26.2622 63.7505 26.4453 63.7505L49.5547 63.7505ZM33.2378 54.7119L42.7622 54.7119L42.7622 61.7583L33.2378 61.7583L33.2378 54.7119ZM65.1221 2.63184C65.1792 2.5752 65.271 2.5752 65.3276 2.63184L67.5083 4.8125C67.5649 4.86914 67.5649 4.96143 67.5083 5.01807L65.4277 7.09863L63.0415 4.7124L65.1221 2.63184ZM61.6328 6.12109L64.0186 8.50732L63.3242 9.20215L60.938 6.81592L61.6328 6.12109ZM59.5293 8.22461L61.9155 10.6108L50.1279 22.3979L47.7422 20.0117L59.5293 8.22461ZM58.0547 17.3315C59.4097 17.3315 60.5117 18.4336 60.5117 19.7886C60.5117 21.1436 59.4097 22.2456 58.0547 22.2456C56.6997 22.2456 55.5977 21.1436 55.5977 19.7886C55.5977 19.7729 55.5996 19.7573 55.6001 19.7417L58.0083 17.334C58.0239 17.3335 58.0391 17.3315 58.0547 17.3315ZM48.3984 23.4858L45.4502 24.6899L46.6543 21.7417L48.3984 23.4858ZM70.0078 46.1187L5.99219 46.1187L5.99219 9.69287C5.99219 9.14404 6.43896 8.69678 6.98828 8.69678L56.2402 8.69678L54.7212 10.2158L20.8672 10.2158C20.3169 10.2158 19.8711 10.6616 19.8711 11.2119C19.8711 11.7622 20.3169 12.208 20.8672 12.208L52.729 12.208L45.7031 19.2344C45.5049 19.4346 45.3496 19.6685 45.2427 19.9302L43.0176 25.3774C42.8135 25.8779 42.9282 26.4478 43.3105 26.8301C43.5669 27.0864 43.9082 27.2222 44.2559 27.2222C44.4263 27.2222 44.5986 27.1895 44.7632 27.1226L50.2104 24.8979C50.4644 24.7939 50.6919 24.6436 50.8882 24.4531L53.9185 21.4229C54.5713 23.0698 56.1782 24.2378 58.0547 24.2378C60.5083 24.2378 62.5039 22.2422 62.5039 19.7886C62.5039 17.9126 61.3364 16.3057 59.6899 15.6528L63.1348 12.208L66.4966 12.208L66.4966 42.6079L65.9688 42.6079L62.3589 36.3555C62.084 35.8789 61.4746 35.7158 60.9985 35.9912C60.522 36.2661 60.3589 36.8755 60.6338 37.3516L63.6685 42.6079L49.7539 42.6079L48.2612 40.0229L55.2188 27.9727L58.3096 33.3262C58.5845 33.8022 59.1938 33.9658 59.6699 33.6904C60.1465 33.4155 60.3096 32.8062 60.0347 32.3301L56.7373 26.6187C56.4204 26.0698 55.8525 25.7422 55.2188 25.7422C54.5845 25.7422 54.0166 26.0698 53.6997 26.6187L47.1108 38.0312L38.6567 23.3882C38.3398 22.8394 37.7725 22.5117 37.1382 22.5117C36.5039 22.5117 35.9365 22.8394 35.6191 23.3882L33.3735 27.2783L33.3735 16.6016C33.3735 15.3198 32.3306 14.2773 31.0493 14.2773L13.9609 14.2773C12.6792 14.2773 11.6367 15.3198 11.6367 16.6016L11.6367 38.3823C11.6367 39.2979 12.3813 40.0425 13.2969 40.0425L26.0044 40.0425L24.5229 42.6079L9.50342 42.6079L9.50342 12.208L16.2188 12.208C16.769 12.208 17.2148 11.7622 17.2148 11.2119C17.2148 10.6616 16.769 10.2158 16.2188 10.2158L9.17139 10.2158C8.25586 10.2158 7.51123 10.9604 7.51123 11.876L7.51123 42.9399C7.51123 43.8555 8.25586 44.6001 9.17139 44.6001L66.8286 44.6001C67.7441 44.6001 68.4888 43.8555 68.4888 42.9399L68.4888 11.876C68.4888 10.9604 67.7441 10.2158 66.8286 10.2158L65.1274 10.2158L66.6465 8.69678L69.0117 8.69678C69.561 8.69678 70.0078 9.14404 70.0078 9.69287L70.0078 46.1187ZM31.3813 22.1177L31.3813 38.0503L13.6289 38.0503L13.6289 22.1177L31.3813 22.1177ZM13.6289 20.1255L13.6289 16.6011C13.6289 16.418 13.7778 16.269 13.9609 16.269L31.0493 16.269C31.2329 16.269 31.3813 16.418 31.3813 16.6011L31.3813 20.1255L13.6289 20.1255ZM28.3047 40.0425L31.7134 40.0425C32.6289 40.0425 33.3735 39.2979 33.3735 38.3823L33.3735 36.2725C33.623 36.3916 33.9004 36.4565 34.1909 36.4565C34.8711 36.4565 35.48 36.105 35.8198 35.5161L37.5146 32.5801C37.5659 32.4912 37.6445 32.4727 37.7007 32.4727C37.7578 32.4727 37.8359 32.4912 37.8872 32.5801L38.9321 34.3901C39.272 34.979 39.8813 35.3306 40.5615 35.3306C41.2412 35.3306 41.8501 34.979 42.1899 34.3901L42.4497 33.9409L47.4536 42.6079L26.8237 42.6079L28.3047 40.0425ZM33.3735 32.938L33.3735 31.2627L37.1387 24.7417L41.2993 31.9487L40.561 33.2271L39.6123 31.584C39.2134 30.8926 38.499 30.4805 37.7007 30.4805C36.9028 30.4805 36.1885 30.8926 35.7896 31.584L34.1904 34.353L33.3735 32.938Z" fill="#FFB400" fill-opacity="1.000000" fill-rule="nonzero"/>
		</g>
	</g>
</svg>
