<svg width="76.000000" height="76.000000" viewBox="0 0 76 76" fill="none" xmlns="http://www.w3.org/2000/svg" xmlns:xlink="http://www.w3.org/1999/xlink">
	<g filter="url(#filter_2_6523_dd)">
		<rect id="Icons/coding" width="68.000000" height="68.000000" transform="translate(4.000000 0.000000)" fill="#FFFFFF" fill-opacity="0"/>
		<rect id="Icons/coding" width="68.000000" height="68.000000" transform="translate(4.000000 0.000000)" fill="#FFFFFF" fill-opacity="0"/>
		<rect id="Icons/coding" width="68.000000" height="68.000000" transform="translate(4.000000 0.000000)" fill="#FFFFFF" fill-opacity="0"/>
		<rect id="Icons/coding" width="68.000000" height="68.000000" transform="translate(4.000000 0.000000)" fill="#FFFFFF" fill-opacity="0"/>
		<g clip-path="url(#clip2_6547)">
			<path id="Vector" d="M67.2188 7.4375L8.78125 7.4375C7.79541 7.43848 6.8501 7.83057 6.15283 8.52783C5.45557 9.2251 5.06348 10.1704 5.0625 11.1562L5.0625 48.3438C5.06348 49.3296 5.45557 50.2749 6.15283 50.9722C6.8501 51.6694 7.79541 52.0615 8.78125 52.0625L30.0552 52.0625L28.7803 55.25L23.125 55.25C22.8433 55.25 22.5728 55.3618 22.3735 55.561C22.1743 55.7603 22.0625 56.0308 22.0625 56.3125L22.0625 58.4375L15.6875 58.4375C15.4058 58.4375 15.1353 58.5493 14.936 58.7485C14.7368 58.9478 14.625 59.2183 14.625 59.5C14.625 59.7817 14.7368 60.0522 14.936 60.2515C15.1353 60.4507 15.4058 60.5625 15.6875 60.5625L60.3125 60.5625C60.5942 60.5625 60.8647 60.4507 61.064 60.2515C61.2632 60.0522 61.375 59.7817 61.375 59.5C61.375 59.2183 61.2632 58.9478 61.064 58.7485C60.8647 58.5493 60.5942 58.4375 60.3125 58.4375L53.9375 58.4375L53.9375 56.3125C53.9375 56.0308 53.8257 55.7603 53.6265 55.561C53.4272 55.3618 53.1567 55.25 52.875 55.25L47.2197 55.25L45.9448 52.0625L67.2188 52.0625C68.2046 52.0615 69.1499 51.6694 69.8472 50.9722C70.5444 50.2749 70.9365 49.3296 70.9375 48.3438L70.9375 11.1562C70.9365 10.1704 70.5444 9.2251 69.8472 8.52783C69.1499 7.83057 68.2046 7.43848 67.2188 7.4375ZM51.8125 57.375L51.8125 58.4375L24.1875 58.4375L24.1875 57.375L51.8125 57.375ZM31.0698 55.25L32.3447 52.0625L43.6553 52.0625L44.9302 55.25L31.0698 55.25ZM68.8125 48.3438C68.812 48.7661 68.644 49.1714 68.3452 49.4702C68.0464 49.769 67.6411 49.937 67.2188 49.9375L8.78125 49.9375C8.35889 49.937 7.95361 49.769 7.65479 49.4702C7.35596 49.1714 7.18799 48.7661 7.1875 48.3438L7.1875 45.6875L68.8125 45.6875L68.8125 48.3438ZM68.8125 43.5625L7.1875 43.5625L7.1875 11.1562C7.18799 10.7339 7.35596 10.3286 7.65479 10.0298C7.95361 9.73096 8.35889 9.56299 8.78125 9.5625L67.2188 9.5625C67.6411 9.56299 68.0464 9.73096 68.3452 10.0298C68.644 10.3286 68.812 10.7339 68.8125 11.1562L68.8125 43.5625Z" fill="#FFB400" fill-opacity="1.000000" fill-rule="nonzero"/>
			<path id="Vector" d="M33.167 34.8882C33.2837 34.9644 33.4146 35.0176 33.5513 35.0435C33.6885 35.0698 33.8296 35.0684 33.9658 35.04C34.1025 35.0117 34.2324 34.9565 34.3477 34.8784C34.4629 34.7998 34.562 34.6992 34.6382 34.5825L43.0054 21.8325C43.1602 21.5972 43.2148 21.3096 43.1577 21.0337C43.1006 20.7578 42.936 20.5161 42.7002 20.3613C42.4648 20.2065 42.1772 20.1519 41.9014 20.209C41.6255 20.2666 41.3838 20.4307 41.229 20.6665L32.8618 33.4165C32.7852 33.5332 32.7324 33.6636 32.7061 33.8008C32.6802 33.938 32.6812 34.0786 32.7095 34.2153C32.7378 34.3521 32.793 34.4819 32.8716 34.5972C32.9497 34.7129 33.0503 34.8115 33.167 34.8882Z" fill="#FFB400" fill-opacity="1.000000" fill-rule="nonzero"/>
			<path id="Vector" d="M44.7573 34.8159C44.9736 34.9966 45.2529 35.0835 45.5337 35.0576C45.8145 35.0322 46.0732 34.8965 46.2539 34.6797L51.5664 28.3047C51.7251 28.1138 51.8125 27.873 51.8125 27.6245C51.8125 27.376 51.7251 27.1357 51.5664 26.9448L46.2539 20.5698C46.1646 20.4614 46.0552 20.3721 45.9316 20.3066C45.8076 20.2407 45.6724 20.2002 45.5327 20.1875C45.3936 20.1743 45.2529 20.189 45.1191 20.2305C44.9854 20.2715 44.8608 20.3394 44.7534 20.4287C44.646 20.5186 44.5571 20.6284 44.4922 20.7524C44.4272 20.8765 44.3877 21.0122 44.375 21.1519C44.3628 21.2915 44.3784 21.4321 44.4204 21.5654C44.4629 21.6987 44.5308 21.8228 44.6211 21.9297L49.3667 27.6245L44.6211 33.3198C44.4409 33.5361 44.354 33.8154 44.3794 34.0962C44.4048 34.3765 44.541 34.6357 44.7573 34.8159Z" fill="#FFB400" fill-opacity="1.000000" fill-rule="nonzero"/>
			<path id="Vector" d="M29.7461 34.6797C29.8354 34.7881 29.9448 34.8774 30.0684 34.9429C30.1924 35.0088 30.3276 35.0493 30.4673 35.062C30.6064 35.0752 30.7471 35.0605 30.8809 35.019C31.0146 34.9775 31.1387 34.9102 31.2466 34.8208C31.354 34.731 31.4429 34.6211 31.5078 34.4971C31.5728 34.3726 31.6123 34.2373 31.6245 34.0977C31.6372 33.958 31.6216 33.8174 31.5796 33.6841C31.5371 33.5503 31.4688 33.4268 31.3789 33.3198L26.6333 27.6245L31.3789 21.9297C31.4688 21.8228 31.5371 21.6987 31.5796 21.5654C31.6216 21.4321 31.6372 21.2915 31.6245 21.1519C31.6123 21.0122 31.5728 20.8765 31.5078 20.7524C31.4429 20.6284 31.354 20.5186 31.2466 20.4287C31.1387 20.3394 31.0146 20.2715 30.8809 20.2305C30.7471 20.189 30.6064 20.1743 30.4673 20.1875C30.3276 20.2002 30.1924 20.2407 30.0684 20.3066C29.9448 20.3721 29.8354 20.4614 29.7461 20.5698L24.4336 26.9448C24.2744 27.1357 24.1875 27.376 24.1875 27.6245C24.1875 27.873 24.2744 28.1138 24.4336 28.3047L29.7461 34.6797Z" fill="#FFB400" fill-opacity="1.000000" fill-rule="nonzero"/>
		</g>
	</g>
</svg>
